# xmcd CD database file
#
# Track frame offsets:
#	150
#	32475
#	58189
#	71965
#	99449
#	121130
#	148479
#	181257
#	203344
#	217209
#	244041
#	278769
#
# Disc length: 3962 seconds
#
# Revision: 0
# Processed by: cddbd v1.5.2PL0 Copyright (c) Steve Scherf et al.
# Submitted via: CDex 1.77
#
DISCID=b70f780c
DTITLE=Herb Ellis - Six Classic Albums CD 2
DYEAR=1957
DGENRE=Jazz
TTITLE0=Paps Blues
TTITLE1=Big reds boogie woogie
TTITLE2=Tin roof blues
TTITLE3=Soft winds
TTITLE4=Royal garden blues
TTITLE5=Patti cake
TTITLE6=Blues for Janet
TTITLE7=Blues for Junior
TTITLE8=Goose grease
TTITLE9=When your lover has gone
TTITLE10=Remember
TTITLE11=Patricia
EXTD=YEAR: 1957
EXTT0=
EXTT1=
EXTT2=
EXTT3=
EXTT4=
EXTT5=
EXTT6=
EXTT7=
EXTT8=
EXTT9=
EXTT10=
EXTT11=
PLAYORDER=
